<svg width="500" height="500" viewBox="0 0 500 500" fill="none" xmlns="http://www.w3.org/2000/svg">
<rect width="500" height="500" rx="50" fill="#11121A"/>
<path d="M118.586 389V388C141.919 362.333 153.586 339 153.586 318C153.586 312.333 152.753 306.667 151.086 301C149.753 295.333 147.086 288.5 143.086 280.5C139.419 272.5 134.253 262.167 127.586 249.5C116.919 229.167 111.586 209.833 111.586 191.5C111.586 179.167 114.419 166 120.086 152C125.753 137.667 134.086 124.333 145.086 112H238.586V113C226.253 126.667 217.419 139 212.086 150C206.753 160.667 204.086 171.667 204.086 183C204.086 191.333 205.586 199.5 208.586 207.5C211.586 215.5 216.419 225.833 223.086 238.5C232.086 254.833 238.253 268.167 241.586 278.5C245.253 288.5 247.086 298.833 247.086 309.5C247.086 323.833 244.753 337.333 240.086 350C235.419 362.333 227.753 375.333 217.086 389H118.586ZM259.699 389V388C283.033 362.333 294.699 339 294.699 318C294.699 312.333 293.866 306.667 292.199 301C290.866 295.333 288.199 288.5 284.199 280.5C280.533 272.5 275.366 262.167 268.699 249.5C258.033 229.167 252.699 209.833 252.699 191.5C252.699 179.167 255.533 166 261.199 152C266.866 137.667 275.199 124.333 286.199 112H379.699V113C367.366 126.667 358.533 139 353.199 150C347.866 160.667 345.199 171.667 345.199 183C345.199 191.333 346.699 199.5 349.699 207.5C352.699 215.5 357.533 225.833 364.199 238.5C373.199 254.833 379.366 268.167 382.699 278.5C386.366 288.5 388.199 298.833 388.199 309.5C388.199 323.833 385.866 337.333 381.199 350C376.533 362.333 368.866 375.333 358.199 389H259.699Z" fill="url(#paint0_linear_77_2)" style="mix-blend-mode:screen"/>
<defs>
<linearGradient id="paint0_linear_77_2" x1="269.5" y1="230.5" x2="158.5" y2="297" gradientUnits="userSpaceOnUse">
<stop offset="0.333294" stop-color="#7A53EE"/>
<stop offset="1" stop-color="#CBA6F6"/>
</linearGradient>
</defs>
</svg>
